<?xml version="1.0" standalone="no"?>
<!DOCTYPE svg PUBLIC "-//W3C//DTD SVG 20010904//EN"
 "http://www.w3.org/TR/2001/REC-SVG-20010904/DTD/svg10.dtd">
<svg version="1.0" xmlns="http://www.w3.org/2000/svg"
 width="1418.000000pt" height="1418.000000pt" viewBox="0 0 1418.000000 1418.000000"
 preserveAspectRatio="xMidYMid meet">
<metadata>
Created by potrace 1.14, written by Peter Selinger 2001-2017
</metadata>
<g transform="translate(0.000000,1418.000000) scale(0.100000,-0.100000)"
fill="#000000" stroke="none">
<path d="M1183 13073 c-15 -7 -45 -12 -65 -13 -20 0 -70 -7 -110 -15 -517
-108 -910 -514 -993 -1028 -13 -81 -15 -762 -15 -5510 l0 -5417 2103 2 2102 3
76 22 c269 77 466 273 542 540 l22 78 5 2269 5 2269 49 -114 c46 -107 59 -137
117 -264 12 -27 21 -53 21 -57 -1 -5 3 -8 10 -8 6 0 9 -3 6 -6 -6 -5 5 -31 67
-169 12 -27 44 -99 69 -160 26 -60 58 -132 70 -160 13 -27 33 -75 46 -105 12
-30 33 -76 47 -102 13 -27 21 -48 18 -48 -4 0 3 -16 15 -35 12 -19 18 -35 15
-35 -4 0 -3 -6 3 -12 6 -7 33 -67 62 -133 28 -66 64 -148 81 -183 16 -35 29
-66 29 -70 0 -4 9 -25 19 -46 21 -40 42 -92 47 -115 1 -8 9 -18 16 -22 7 -5
10 -9 5 -9 -4 0 0 -11 9 -25 9 -14 13 -25 10 -25 -4 0 1 -11 9 -24 9 -13 18
-34 20 -47 3 -13 9 -25 15 -27 5 -2 10 -10 10 -18 0 -13 8 -33 62 -149 12 -27
23 -52 24 -55 1 -5 23 -57 56 -130 12 -25 19 -45 17 -46 -2 0 2 -8 9 -16 7 -9
15 -26 17 -39 3 -12 9 -25 15 -29 5 -3 11 -15 13 -26 1 -10 12 -38 24 -61 12
-22 19 -44 16 -47 -4 -3 -1 -6 6 -6 7 0 10 -4 7 -9 -4 -5 -2 -11 4 -13 5 -1
11 -12 13 -23 2 -11 21 -56 41 -100 39 -82 58 -126 61 -135 0 -3 6 -14 12 -25
6 -11 12 -24 14 -30 1 -5 15 -39 31 -75 17 -36 32 -74 34 -84 2 -11 9 -23 15
-26 6 -4 10 -9 9 -11 -1 -4 10 -35 32 -86 6 -16 11 -31 10 -36 -1 -4 2 -7 8
-7 5 0 10 -6 10 -12 0 -7 13 -41 30 -76 16 -34 27 -62 25 -62 -2 0 12 -33 32
-72 19 -40 37 -80 38 -90 2 -9 10 -27 19 -40 8 -13 16 -27 17 -33 0 -5 9 -26
20 -46 10 -20 15 -39 12 -43 -4 -3 -1 -6 5 -6 7 0 11 -3 10 -7 -1 -5 3 -17 9
-28 6 -11 11 -22 11 -25 1 -10 35 -87 68 -153 18 -37 34 -71 35 -75 1 -4 26
-57 55 -119 30 -62 54 -114 54 -117 0 -3 13 -27 28 -53 16 -26 46 -82 68 -123
41 -80 131 -221 146 -231 6 -3 10 -10 10 -15 0 -27 251 -287 287 -299 12 -3
21 -11 21 -16 0 -5 7 -9 15 -9 8 0 15 -4 15 -10 0 -5 6 -10 14 -10 7 0 25 -9
40 -21 14 -11 26 -18 26 -14 0 3 15 -2 33 -12 32 -17 51 -23 75 -25 6 -1 12
-5 12 -10 0 -5 4 -7 9 -3 5 3 12 1 16 -5 4 -6 10 -8 14 -6 4 3 25 0 47 -6 21
-6 59 -12 84 -15 25 -2 1224 -5 2665 -5 2441 -2 2628 0 2735 16 511 77 907
432 1043 933 l32 118 3 5458 2 5457 -1977 -2 -1978 -3 -73 -23 c-219 -67 -393
-214 -483 -407 -75 -161 -69 76 -70 -2857 l0 -2633 -21 45 c-21 48 -40 92 -43
100 -1 3 -10 23 -20 45 -10 22 -19 42 -20 45 -3 11 -28 67 -45 100 -10 19 -18
37 -18 40 1 3 -8 23 -19 45 -12 22 -22 45 -23 50 -1 6 -7 21 -13 35 -6 14 -11
27 -12 30 -1 3 -14 32 -29 65 -15 33 -32 71 -38 85 -6 14 -17 37 -24 51 -7 14
-11 29 -7 33 3 3 1 6 -5 6 -7 0 -12 3 -11 8 2 13 -13 52 -20 52 -4 0 -7 10 -8
22 -1 11 -7 24 -13 28 -7 4 -11 10 -11 14 1 9 -9 36 -30 81 -42 93 -92 207
-94 215 0 3 -6 15 -13 28 -7 12 -10 22 -7 22 3 0 -6 20 -20 45 -14 25 -25 52
-25 60 0 8 -5 15 -10 15 -6 0 -9 3 -8 8 1 8 -7 30 -37 97 -12 28 -28 67 -36
88 -7 20 -17 37 -21 37 -4 0 -7 3 -7 8 1 4 0 10 -1 15 -1 4 -3 10 -5 15 -1 4
-16 38 -33 75 -18 38 -32 71 -32 73 0 3 -14 34 -30 70 -36 75 -48 107 -46 115
0 3 -5 13 -12 21 -7 9 -15 27 -17 39 -3 13 -9 25 -15 27 -5 2 -10 9 -10 16 0
7 -13 42 -29 77 -36 80 -60 137 -61 147 -1 4 -8 17 -16 30 -8 12 -11 22 -8 22
4 0 0 8 -8 18 -9 9 -19 28 -23 42 -8 25 -17 47 -77 180 -19 41 -35 77 -35 80
-1 3 -7 19 -14 35 -12 29 -21 49 -92 207 -19 42 -32 79 -29 82 3 3 0 6 -6 6
-7 0 -11 3 -10 8 0 4 -7 25 -17 47 -10 22 -19 42 -20 45 0 3 -11 28 -24 55
-12 28 -24 55 -25 60 -2 6 -13 32 -24 58 -12 27 -22 53 -22 58 0 5 -4 9 -10 9
-5 0 -10 9 -10 20 0 12 -7 32 -16 45 -9 13 -17 30 -19 37 -9 37 -18 58 -26 58
-5 0 -9 10 -9 23 0 13 -5 28 -12 35 -6 6 -13 22 -15 34 -2 12 -7 25 -11 28 -6
4 -130 281 -136 305 -2 6 -13 33 -26 60 -13 28 -24 52 -24 55 -1 3 -14 31 -29
64 -15 32 -27 65 -27 72 0 8 -5 14 -10 14 -6 0 -9 3 -8 8 0 4 -7 25 -17 47
-10 22 -18 43 -17 48 1 4 -2 7 -8 7 -6 0 -9 3 -8 8 1 4 -4 18 -12 32 -7 14
-12 25 -10 25 2 0 -7 19 -19 43 -12 23 -19 42 -15 42 3 0 -5 17 -18 38 -12 20
-22 38 -20 40 1 1 -5 16 -13 32 -9 17 -13 30 -10 30 2 0 -7 21 -22 48 -15 26
-26 48 -25 50 3 3 -217 447 -226 456 -4 4 -7 11 -7 14 0 12 -98 177 -107 180
-4 2 -6 8 -2 13 3 5 0 9 -5 9 -6 0 -11 5 -11 10 0 10 -31 58 -55 86 -30 35
-45 55 -45 59 0 8 -58 72 -135 148 -69 68 -207 167 -232 167 -7 0 -13 4 -13 8
0 4 -26 16 -57 27 -32 10 -62 21 -68 24 -5 3 -14 6 -20 8 -5 1 -21 5 -35 8
-14 4 -36 8 -50 10 -14 2 -25 4 -25 5 0 9 -373 10 -2672 13 -1992 2 -2578 -1
-2600 -10z"/>
</g>
</svg>
